<svg width="90" height="90" viewBox="0 0 90 90" fill="none" xmlns="http://www.w3.org/2000/svg">
<path d="M38.3027 23.5026L23.5528 41.3201C23.3685 41.5452 23 41.4157 23 41.1258V23.3084C23 23.1388 23.1405 23 23.3123 23H38.0591C38.3214 23 38.4682 23.3022 38.2995 23.5026H38.3027Z" fill="white"/>
<path d="M38.2121 67.9969H23.3123C23.1405 67.9969 23 67.8582 23 67.6886V50.1394C23 49.8526 23.3654 49.72 23.5528 49.942L38.4526 67.4912C38.6243 67.6916 38.4776 67.9969 38.2121 67.9969Z" fill="white"/>
<path d="M58.2524 56.094L49.5829 45.8808C49.4861 45.7667 49.4861 45.6033 49.5829 45.4861L58.2555 35.0109L67.7806 23.5026C67.9461 23.3022 67.8025 23 67.5401 23H49.1894C49.0957 23 49.0083 23.0401 48.949 23.1141L30.4234 45.4892C30.3297 45.6033 30.3297 45.7698 30.4234 45.8839L49.1051 67.889C49.1645 67.9599 49.2519 68 49.3456 68H67.6869C67.9524 68 68.096 67.6947 67.9274 67.4943L58.2524 56.097V56.094Z" fill="white"/>
</svg>
